<mxfile host="app.diagrams.net" modified="2021-01-28T09:37:15.054Z" agent="5.0 (Windows NT 10.0; Win64; x64) AppleWebKit/537.36 (KHTML, like Gecko) Chrome/89.0.4389.23 Safari/537.36" etag="Ysig60XkdmM0uRR6HMus" version="14.1.9" type="github">
  <diagram id="C5RBs43oDa-KdzZeNtuy" name="Page-1">
    <mxGraphModel dx="1240" dy="689" grid="1" gridSize="10" guides="1" tooltips="1" connect="1" arrows="1" fold="1" page="1" pageScale="1" pageWidth="827" pageHeight="1169" math="0" shadow="0">
      <root>
        <mxCell id="WIyWlLk6GJQsqaUBKTNV-0" />
        <mxCell id="WIyWlLk6GJQsqaUBKTNV-1" parent="WIyWlLk6GJQsqaUBKTNV-0" />
        <mxCell id="St80IQg7f-H8IcsVCDNa-28" value="No" style="edgeStyle=orthogonalEdgeStyle;rounded=0;orthogonalLoop=1;jettySize=auto;html=1;spacing=13;" edge="1" parent="WIyWlLk6GJQsqaUBKTNV-1" source="St80IQg7f-H8IcsVCDNa-9" target="St80IQg7f-H8IcsVCDNa-27">
          <mxGeometry relative="1" as="geometry" />
        </mxCell>
        <mxCell id="St80IQg7f-H8IcsVCDNa-62" value="Yes" style="edgeStyle=orthogonalEdgeStyle;rounded=0;orthogonalLoop=1;jettySize=auto;html=1;entryX=1;entryY=0.5;entryDx=0;entryDy=0;entryPerimeter=0;" edge="1" parent="WIyWlLk6GJQsqaUBKTNV-1" source="St80IQg7f-H8IcsVCDNa-9" target="St80IQg7f-H8IcsVCDNa-22">
          <mxGeometry relative="1" as="geometry" />
        </mxCell>
        <mxCell id="St80IQg7f-H8IcsVCDNa-9" value="&lt;font face=&quot;arial, sans-serif&quot;&gt;&lt;span style=&quot;font-size: 14.6667px&quot;&gt;Is M correct?&lt;/span&gt;&lt;/font&gt;" style="rhombus;whiteSpace=wrap;html=1;spacing=13;" vertex="1" parent="WIyWlLk6GJQsqaUBKTNV-1">
          <mxGeometry x="309" y="470" width="152" height="110" as="geometry" />
        </mxCell>
        <mxCell id="St80IQg7f-H8IcsVCDNa-43" style="edgeStyle=orthogonalEdgeStyle;rounded=0;orthogonalLoop=1;jettySize=auto;html=1;entryX=0.5;entryY=0;entryDx=0;entryDy=0;spacing=13;" edge="1" parent="WIyWlLk6GJQsqaUBKTNV-1" source="St80IQg7f-H8IcsVCDNa-17" target="St80IQg7f-H8IcsVCDNa-60">
          <mxGeometry relative="1" as="geometry">
            <mxPoint x="385" y="330" as="targetPoint" />
          </mxGeometry>
        </mxCell>
        <mxCell id="St80IQg7f-H8IcsVCDNa-17" value="&lt;b&gt;&lt;span lang=&quot;EN-US&quot; style=&quot;font-size: 10pt ; line-height: 115% ; font-family: &amp;#34;arial&amp;#34; , sans-serif&quot;&gt;a&lt;/span&gt;&lt;/b&gt;&lt;span lang=&quot;EN-US&quot; style=&quot;font-size: 10pt ; line-height: 115% ; font-family: &amp;#34;arial&amp;#34; , sans-serif&quot;&gt; = 0, &lt;b&gt;b&lt;/b&gt; = 128, &lt;b&gt;t&lt;/b&gt; = 0&lt;/span&gt;" style="rounded=0;whiteSpace=wrap;html=1;spacing=13;" vertex="1" parent="WIyWlLk6GJQsqaUBKTNV-1">
          <mxGeometry x="305" y="280" width="160" height="60" as="geometry" />
        </mxCell>
        <mxCell id="St80IQg7f-H8IcsVCDNa-65" style="edgeStyle=orthogonalEdgeStyle;rounded=0;orthogonalLoop=1;jettySize=auto;html=1;entryX=0;entryY=0.5;entryDx=0;entryDy=0;" edge="1" parent="WIyWlLk6GJQsqaUBKTNV-1" source="St80IQg7f-H8IcsVCDNa-22" target="St80IQg7f-H8IcsVCDNa-46">
          <mxGeometry relative="1" as="geometry" />
        </mxCell>
        <mxCell id="St80IQg7f-H8IcsVCDNa-22" value="&lt;span lang=&quot;EN-US&quot; style=&quot;font-size: 10pt ; line-height: 115% ; font-family: &amp;#34;arial&amp;#34; , sans-serif&quot;&gt;The number you thought of is M and I guessed it &lt;b&gt;t&lt;/b&gt; tries&lt;/span&gt;" style="shape=display;whiteSpace=wrap;html=1;spacing=13;" vertex="1" parent="WIyWlLk6GJQsqaUBKTNV-1">
          <mxGeometry x="30" y="469" width="160" height="110" as="geometry" />
        </mxCell>
        <mxCell id="St80IQg7f-H8IcsVCDNa-55" value="Yes" style="edgeStyle=orthogonalEdgeStyle;rounded=0;orthogonalLoop=1;jettySize=auto;html=1;entryX=0;entryY=0;entryDx=63.125;entryDy=0;entryPerimeter=0;" edge="1" parent="WIyWlLk6GJQsqaUBKTNV-1" source="St80IQg7f-H8IcsVCDNa-27" target="St80IQg7f-H8IcsVCDNa-29">
          <mxGeometry relative="1" as="geometry" />
        </mxCell>
        <mxCell id="St80IQg7f-H8IcsVCDNa-66" value="No" style="edgeStyle=orthogonalEdgeStyle;rounded=0;orthogonalLoop=1;jettySize=auto;html=1;entryX=0;entryY=0.5;entryDx=0;entryDy=0;" edge="1" parent="WIyWlLk6GJQsqaUBKTNV-1" source="St80IQg7f-H8IcsVCDNa-27" target="St80IQg7f-H8IcsVCDNa-31">
          <mxGeometry relative="1" as="geometry" />
        </mxCell>
        <mxCell id="St80IQg7f-H8IcsVCDNa-27" value="&lt;span style=&quot;font-size: 13.3333px&quot;&gt;if t == 6&lt;/span&gt;" style="rhombus;whiteSpace=wrap;html=1;spacing=13;" vertex="1" parent="WIyWlLk6GJQsqaUBKTNV-1">
          <mxGeometry x="320" y="636.5" width="130" height="80" as="geometry" />
        </mxCell>
        <mxCell id="St80IQg7f-H8IcsVCDNa-48" style="edgeStyle=orthogonalEdgeStyle;rounded=0;orthogonalLoop=1;jettySize=auto;html=1;entryX=1;entryY=0.5;entryDx=0;entryDy=0;" edge="1" parent="WIyWlLk6GJQsqaUBKTNV-1" source="St80IQg7f-H8IcsVCDNa-29" target="St80IQg7f-H8IcsVCDNa-46">
          <mxGeometry relative="1" as="geometry" />
        </mxCell>
        <mxCell id="St80IQg7f-H8IcsVCDNa-29" value="&lt;span lang=&quot;EN-US&quot; style=&quot;font-size: 10pt ; line-height: 115% ; font-family: &amp;#34;arial&amp;#34; , sans-serif&quot;&gt;I am&lt;br/&gt;sorry that I cannot guess it after 6 attempts&lt;/span&gt;" style="shape=display;whiteSpace=wrap;html=1;spacing=13;" vertex="1" parent="WIyWlLk6GJQsqaUBKTNV-1">
          <mxGeometry x="322" y="780" width="145" height="110" as="geometry" />
        </mxCell>
        <mxCell id="St80IQg7f-H8IcsVCDNa-35" value="Yes" style="edgeStyle=orthogonalEdgeStyle;rounded=0;orthogonalLoop=1;jettySize=auto;html=1;spacing=13;" edge="1" parent="WIyWlLk6GJQsqaUBKTNV-1" source="St80IQg7f-H8IcsVCDNa-31" target="St80IQg7f-H8IcsVCDNa-34">
          <mxGeometry relative="1" as="geometry" />
        </mxCell>
        <mxCell id="St80IQg7f-H8IcsVCDNa-68" value="No" style="edgeStyle=orthogonalEdgeStyle;rounded=0;orthogonalLoop=1;jettySize=auto;html=1;entryX=0.5;entryY=1;entryDx=0;entryDy=0;" edge="1" parent="WIyWlLk6GJQsqaUBKTNV-1" source="St80IQg7f-H8IcsVCDNa-31" target="St80IQg7f-H8IcsVCDNa-36">
          <mxGeometry relative="1" as="geometry" />
        </mxCell>
        <mxCell id="St80IQg7f-H8IcsVCDNa-31" value="&lt;font face=&quot;arial, sans-serif&quot;&gt;&lt;span style=&quot;font-size: 13.3333px&quot;&gt;Is M larger?&lt;/span&gt;&lt;/font&gt;" style="rhombus;whiteSpace=wrap;html=1;spacing=13;" vertex="1" parent="WIyWlLk6GJQsqaUBKTNV-1">
          <mxGeometry x="540" y="629" width="140" height="95" as="geometry" />
        </mxCell>
        <mxCell id="St80IQg7f-H8IcsVCDNa-67" style="edgeStyle=orthogonalEdgeStyle;rounded=0;orthogonalLoop=1;jettySize=auto;html=1;entryX=1;entryY=0.75;entryDx=0;entryDy=0;" edge="1" parent="WIyWlLk6GJQsqaUBKTNV-1" source="St80IQg7f-H8IcsVCDNa-34" target="St80IQg7f-H8IcsVCDNa-60">
          <mxGeometry relative="1" as="geometry">
            <Array as="points">
              <mxPoint x="610" y="425" />
            </Array>
          </mxGeometry>
        </mxCell>
        <mxCell id="St80IQg7f-H8IcsVCDNa-34" value="&lt;b&gt;&lt;span lang=&quot;EN-US&quot; style=&quot;font-size: 10pt ; line-height: 115% ; font-family: &amp;#34;arial&amp;#34; , sans-serif&quot;&gt;a&lt;/span&gt;&lt;/b&gt;&lt;span lang=&quot;EN-US&quot; style=&quot;font-size: 10pt ; line-height: 115% ; font-family: &amp;#34;arial&amp;#34; , sans-serif&quot;&gt; = M&lt;/span&gt;" style="whiteSpace=wrap;html=1;spacing=13;" vertex="1" parent="WIyWlLk6GJQsqaUBKTNV-1">
          <mxGeometry x="550" y="515" width="120" height="60" as="geometry" />
        </mxCell>
        <mxCell id="St80IQg7f-H8IcsVCDNa-69" style="edgeStyle=orthogonalEdgeStyle;rounded=0;orthogonalLoop=1;jettySize=auto;html=1;entryX=1;entryY=0.25;entryDx=0;entryDy=0;" edge="1" parent="WIyWlLk6GJQsqaUBKTNV-1" source="St80IQg7f-H8IcsVCDNa-36" target="St80IQg7f-H8IcsVCDNa-60">
          <mxGeometry relative="1" as="geometry">
            <Array as="points">
              <mxPoint x="760" y="395" />
            </Array>
          </mxGeometry>
        </mxCell>
        <mxCell id="St80IQg7f-H8IcsVCDNa-36" value="b = M" style="whiteSpace=wrap;html=1;spacing=13;" vertex="1" parent="WIyWlLk6GJQsqaUBKTNV-1">
          <mxGeometry x="700" y="515" width="120" height="60" as="geometry" />
        </mxCell>
        <mxCell id="St80IQg7f-H8IcsVCDNa-46" value="End" style="rounded=1;whiteSpace=wrap;html=1;" vertex="1" parent="WIyWlLk6GJQsqaUBKTNV-1">
          <mxGeometry x="139" y="805" width="120" height="60" as="geometry" />
        </mxCell>
        <mxCell id="St80IQg7f-H8IcsVCDNa-59" style="edgeStyle=orthogonalEdgeStyle;rounded=0;orthogonalLoop=1;jettySize=auto;html=1;entryX=0.5;entryY=0;entryDx=0;entryDy=0;" edge="1" parent="WIyWlLk6GJQsqaUBKTNV-1" source="St80IQg7f-H8IcsVCDNa-57" target="St80IQg7f-H8IcsVCDNa-17">
          <mxGeometry relative="1" as="geometry" />
        </mxCell>
        <mxCell id="St80IQg7f-H8IcsVCDNa-57" value="&lt;p class=&quot;MsoNormal&quot; align=&quot;center&quot; style=&quot;line-height: 114%&quot;&gt;&lt;b&gt;Please think of an integer number between 0 and 128&lt;/b&gt;&lt;br&gt;&lt;/p&gt;" style="shape=display;whiteSpace=wrap;html=1;spacing=13;" vertex="1" parent="WIyWlLk6GJQsqaUBKTNV-1">
          <mxGeometry x="305" y="130" width="160" height="110" as="geometry" />
        </mxCell>
        <mxCell id="St80IQg7f-H8IcsVCDNa-63" style="edgeStyle=orthogonalEdgeStyle;rounded=0;orthogonalLoop=1;jettySize=auto;html=1;entryX=0.5;entryY=0;entryDx=0;entryDy=0;" edge="1" parent="WIyWlLk6GJQsqaUBKTNV-1" source="St80IQg7f-H8IcsVCDNa-60" target="St80IQg7f-H8IcsVCDNa-9">
          <mxGeometry relative="1" as="geometry" />
        </mxCell>
        <mxCell id="St80IQg7f-H8IcsVCDNa-60" value="&lt;span&gt;M = (a + b) / 2&lt;/span&gt;&lt;span style=&quot;font-size: 13.3333px&quot;&gt;&lt;br&gt;t = t + 1&lt;/span&gt;" style="shape=process;whiteSpace=wrap;html=1;backgroundOutline=1;" vertex="1" parent="WIyWlLk6GJQsqaUBKTNV-1">
          <mxGeometry x="325" y="380" width="120" height="60" as="geometry" />
        </mxCell>
        <mxCell id="St80IQg7f-H8IcsVCDNa-71" style="edgeStyle=orthogonalEdgeStyle;rounded=0;orthogonalLoop=1;jettySize=auto;html=1;entryX=0;entryY=0;entryDx=72.5;entryDy=0;entryPerimeter=0;" edge="1" parent="WIyWlLk6GJQsqaUBKTNV-1" source="St80IQg7f-H8IcsVCDNa-70" target="St80IQg7f-H8IcsVCDNa-57">
          <mxGeometry relative="1" as="geometry" />
        </mxCell>
        <mxCell id="St80IQg7f-H8IcsVCDNa-70" value="Start" style="ellipse;whiteSpace=wrap;html=1;" vertex="1" parent="WIyWlLk6GJQsqaUBKTNV-1">
          <mxGeometry x="317" y="10" width="120" height="80" as="geometry" />
        </mxCell>
      </root>
    </mxGraphModel>
  </diagram>
</mxfile>
